solid OpenSCAD_Model
  facet normal 1 -0 0
    outer loop
      vertex 53.5 0 1
      vertex 53.5 115 0
      vertex 53.5 115 1
    endloop
  endfacet
  facet normal 1 0 0
    outer loop
      vertex 53.5 115 0
      vertex 53.5 0 1
      vertex 53.5 0 0
    endloop
  endfacet
  facet normal 0 0 1
    outer loop
      vertex 27.5375 116.575 1
      vertex 30.1125 116.575 1
      vertex 30.0438 117.272 1
    endloop
  endfacet
  facet normal 0 0 1
    outer loop
      vertex 27.5183 116.77 1
      vertex 30.0438 117.272 1
      vertex 29.8404 117.943 1
    endloop
  endfacet
  facet normal 0 0 1
    outer loop
      vertex 30.1125 116.575 1
      vertex 27.5375 116.575 1
      vertex 30.0438 115.878 1
    endloop
  endfacet
  facet normal -0 0 1
    outer loop
      vertex 27.5183 116.38 1
      vertex 30.0438 115.878 1
      vertex 27.5375 116.575 1
    endloop
  endfacet
  facet normal 0 0 1
    outer loop
      vertex 27.5183 116.77 1
      vertex 29.8404 117.943 1
      vertex 29.51 118.561 1
    endloop
  endfacet
  facet normal 0 0 1
    outer loop
      vertex 48.5192 3.77009 1
      vertex 4.55579 3.77009 1
      vertex 4.575 3.575 1
    endloop
  endfacet
  facet normal 0 0 1
    outer loop
      vertex 49.1173 4.49888 1
      vertex 4.49888 3.95768 1
      vertex 4.55579 3.77009 1
    endloop
  endfacet
  facet normal 0 0 1
    outer loop
      vertex 49.1173 4.49888 1
      vertex 4.40647 4.13057 1
      vertex 4.49888 3.95768 1
    endloop
  endfacet
  facet normal 0 0 1
    outer loop
      vertex 49.1173 4.49888 1
      vertex 4.28211 4.28211 1
      vertex 4.40647 4.13057 1
    endloop
  endfacet
  facet normal 0 0 1
    outer loop
      vertex 49.1173 4.49888 1
      vertex 4.13057 4.40647 1
      vertex 4.28211 4.28211 1
    endloop
  endfacet
  facet normal 0 0 1
    outer loop
      vertex 49.1173 4.49888 1
      vertex 3.95768 4.49888 1
      vertex 4.13057 4.40647 1
    endloop
  endfacet
  facet normal 0 0 1
    outer loop
      vertex 23.3452 115 1
      vertex 3.77009 4.55579 1
      vertex 3.95768 4.49888 1
    endloop
  endfacet
  facet normal -0 0 1
    outer loop
      vertex 0 115 1
      vertex 3.77009 4.55579 1
      vertex 23.3452 115 1
    endloop
  endfacet
  facet normal 0 0 1
    outer loop
      vertex 3.77009 4.55579 1
      vertex 0 115 1
      vertex 3.575 4.575 1
    endloop
  endfacet
  facet normal 0 0 1
    outer loop
      vertex 3.575 4.575 1
      vertex 0 115 1
      vertex 3.37991 4.55579 1
    endloop
  endfacet
  facet normal 0 0 1
    outer loop
      vertex 3.37991 4.55579 1
      vertex 0 115 1
      vertex 3.19232 4.49888 1
    endloop
  endfacet
  facet normal 0 0 1
    outer loop
      vertex 3.19232 4.49888 1
      vertex 0 115 1
      vertex 3.01943 4.40647 1
    endloop
  endfacet
  facet normal 0 0 1
    outer loop
      vertex 3.01943 4.40647 1
      vertex 0 115 1
      vertex 2.86789 4.28211 1
    endloop
  endfacet
  facet normal 0 0 1
    outer loop
      vertex 2.86789 4.28211 1
      vertex 0 115 1
      vertex 2.74353 4.13057 1
    endloop
  endfacet
  facet normal 0 0 1
    outer loop
      vertex 0 0 1
      vertex 2.74353 4.13057 1
      vertex 0 115 1
    endloop
  endfacet
  facet normal 0 0 1
    outer loop
      vertex 2.65112 3.95768 1
      vertex 0 0 1
      vertex 2.59421 3.77009 1
    endloop
  endfacet
  facet normal 0 0 1
    outer loop
      vertex 2.74353 4.13057 1
      vertex 0 0 1
      vertex 2.65112 3.95768 1
    endloop
  endfacet
  facet normal 0 0 1
    outer loop
      vertex 25.5567 116.77 1
      vertex 23.0312 117.272 1
      vertex 25.5375 116.575 1
    endloop
  endfacet
  facet normal 0 0 1
    outer loop
      vertex 22.9625 116.575 1
      vertex 25.5375 116.575 1
      vertex 23.0312 117.272 1
    endloop
  endfacet
  facet normal 0 -0 1
    outer loop
      vertex 23.2346 115.207 1
      vertex 25.5375 116.575 1
      vertex 23.0312 115.878 1
    endloop
  endfacet
  facet normal 0 0 1
    outer loop
      vertex 25.5375 116.575 1
      vertex 23.2346 115.207 1
      vertex 23.3452 115 1
    endloop
  endfacet
  facet normal 0 0 1
    outer loop
      vertex 25.5375 116.575 1
      vertex 22.9625 116.575 1
      vertex 23.0312 115.878 1
    endloop
  endfacet
  facet normal 0 0 1
    outer loop
      vertex 30.0438 117.272 1
      vertex 27.5183 116.77 1
      vertex 27.5375 116.575 1
    endloop
  endfacet
  facet normal 0 0 1
    outer loop
      vertex 28.5237 119.548 1
      vertex 27.4614 116.958 1
      vertex 27.5183 116.77 1
    endloop
  endfacet
  facet normal 0 0 1
    outer loop
      vertex 28.5237 119.548 1
      vertex 27.369 117.131 1
      vertex 27.4614 116.958 1
    endloop
  endfacet
  facet normal 0 0 1
    outer loop
      vertex 28.5237 119.548 1
      vertex 27.2446 117.282 1
      vertex 27.369 117.131 1
    endloop
  endfacet
  facet normal 0 0 1
    outer loop
      vertex 26.9202 117.499 1
      vertex 27.9056 119.878 1
      vertex 27.2349 120.081 1
    endloop
  endfacet
  facet normal 0 0 1
    outer loop
      vertex 28.5237 119.548 1
      vertex 27.0931 117.406 1
      vertex 27.2446 117.282 1
    endloop
  endfacet
  facet normal 0 0 1
    outer loop
      vertex 27.9056 119.878 1
      vertex 26.9202 117.499 1
      vertex 27.0931 117.406 1
    endloop
  endfacet
  facet normal 0 0 1
    outer loop
      vertex 27.2349 120.081 1
      vertex 26.7326 117.556 1
      vertex 26.9202 117.499 1
    endloop
  endfacet
  facet normal 0 0 1
    outer loop
      vertex 26.5375 120.15 1
      vertex 26.7326 117.556 1
      vertex 27.2349 120.081 1
    endloop
  endfacet
  facet normal 0 0 1
    outer loop
      vertex 26.5375 120.15 1
      vertex 26.5375 117.575 1
      vertex 26.7326 117.556 1
    endloop
  endfacet
  facet normal 0 0 1
    outer loop
      vertex 26.5375 120.15 1
      vertex 26.3424 117.556 1
      vertex 26.5375 117.575 1
    endloop
  endfacet
  facet normal -0 0 1
    outer loop
      vertex 25.8401 120.081 1
      vertex 26.3424 117.556 1
      vertex 26.5375 120.15 1
    endloop
  endfacet
  facet normal 0 0 1
    outer loop
      vertex 26.3424 117.556 1
      vertex 25.8401 120.081 1
      vertex 26.1548 117.499 1
    endloop
  endfacet
  facet normal -0 0 1
    outer loop
      vertex 25.1694 119.878 1
      vertex 26.1548 117.499 1
      vertex 25.8401 120.081 1
    endloop
  endfacet
  facet normal 0 0 1
    outer loop
      vertex 26.1548 117.499 1
      vertex 25.1694 119.878 1
      vertex 25.9819 117.406 1
    endloop
  endfacet
  facet normal -0 0 1
    outer loop
      vertex 24.5513 119.548 1
      vertex 25.9819 117.406 1
      vertex 25.1694 119.878 1
    endloop
  endfacet
  facet normal 0 0 1
    outer loop
      vertex 25.9819 117.406 1
      vertex 24.5513 119.548 1
      vertex 25.8304 117.282 1
    endloop
  endfacet
  facet normal -0 0 1
    outer loop
      vertex 24.0096 119.103 1
      vertex 25.8304 117.282 1
      vertex 24.5513 119.548 1
    endloop
  endfacet
  facet normal 0 0 1
    outer loop
      vertex 25.8304 117.282 1
      vertex 24.0096 119.103 1
      vertex 25.706 117.131 1
    endloop
  endfacet
  facet normal -0 0 1
    outer loop
      vertex 23.565 118.561 1
      vertex 25.706 117.131 1
      vertex 24.0096 119.103 1
    endloop
  endfacet
  facet normal -0 0 1
    outer loop
      vertex 50.3315 4.13057 1
      vertex 53.5 0 1
      vertex 53.5 115 1
    endloop
  endfacet
  facet normal 0 0 1
    outer loop
      vertex 53.5 0 1
      vertex 50.4808 3.77009 1
      vertex 50.5 3.575 1
    endloop
  endfacet
  facet normal 0 0 1
    outer loop
      vertex 53.5 0 1
      vertex 50.4239 3.95768 1
      vertex 50.4808 3.77009 1
    endloop
  endfacet
  facet normal 0 0 1
    outer loop
      vertex 53.5 0 1
      vertex 50.3315 4.13057 1
      vertex 50.4239 3.95768 1
    endloop
  endfacet
  facet normal 0 0 1
    outer loop
      vertex 53.5 115 1
      vertex 50.2071 4.28211 1
      vertex 50.3315 4.13057 1
    endloop
  endfacet
  facet normal 0 0 1
    outer loop
      vertex 53.5 115 1
      vertex 50.0556 4.40647 1
      vertex 50.2071 4.28211 1
    endloop
  endfacet
  facet normal 0 0 1
    outer loop
      vertex 53.5 115 1
      vertex 49.8827 4.49888 1
      vertex 50.0556 4.40647 1
    endloop
  endfacet
  facet normal 0 0 1
    outer loop
      vertex 53.5 115 1
      vertex 49.6951 4.55579 1
      vertex 49.8827 4.49888 1
    endloop
  endfacet
  facet normal 0 0 1
    outer loop
      vertex 53.5 115 1
      vertex 49.5 4.575 1
      vertex 49.6951 4.55579 1
    endloop
  endfacet
  facet normal 0 0 1
    outer loop
      vertex 53.5 115 1
      vertex 49.3049 4.55579 1
      vertex 49.5 4.575 1
    endloop
  endfacet
  facet normal -0 0 1
    outer loop
      vertex 29.7298 115 1
      vertex 49.3049 4.55579 1
      vertex 53.5 115 1
    endloop
  endfacet
  facet normal 0 0 1
    outer loop
      vertex 49.3049 4.55579 1
      vertex 29.7298 115 1
      vertex 49.1173 4.49888 1
    endloop
  endfacet
  facet normal -0 0 1
    outer loop
      vertex 23.3452 115 1
      vertex 49.1173 4.49888 1
      vertex 29.7298 115 1
    endloop
  endfacet
  facet normal 0 0 1
    outer loop
      vertex 3.95768 4.49888 1
      vertex 49.1173 4.49888 1
      vertex 23.3452 115 1
    endloop
  endfacet
  facet normal 0 0 1
    outer loop
      vertex 4.55579 3.77009 1
      vertex 48.9444 4.40647 1
      vertex 49.1173 4.49888 1
    endloop
  endfacet
  facet normal 0 0 1
    outer loop
      vertex 4.55579 3.77009 1
      vertex 48.7929 4.28211 1
      vertex 48.9444 4.40647 1
    endloop
  endfacet
  facet normal 0 0 1
    outer loop
      vertex 4.55579 3.77009 1
      vertex 48.6685 4.13057 1
      vertex 48.7929 4.28211 1
    endloop
  endfacet
  facet normal 0 0 1
    outer loop
      vertex 4.55579 3.77009 1
      vertex 48.5761 3.95768 1
      vertex 48.6685 4.13057 1
    endloop
  endfacet
  facet normal -0 0 1
    outer loop
      vertex 50.4808 3.37991 1
      vertex 53.5 0 1
      vertex 50.5 3.575 1
    endloop
  endfacet
  facet normal -0 0 1
    outer loop
      vertex 50.4239 3.19232 1
      vertex 53.5 0 1
      vertex 50.4808 3.37991 1
    endloop
  endfacet
  facet normal -0 0 1
    outer loop
      vertex 50.3315 3.01943 1
      vertex 53.5 0 1
      vertex 50.4239 3.19232 1
    endloop
  endfacet
  facet normal -0 0 1
    outer loop
      vertex 50.2071 2.86789 1
      vertex 53.5 0 1
      vertex 50.3315 3.01943 1
    endloop
  endfacet
  facet normal -0 0 1
    outer loop
      vertex 50.0556 2.74353 1
      vertex 53.5 0 1
      vertex 50.2071 2.86789 1
    endloop
  endfacet
  facet normal -0 0 1
    outer loop
      vertex 49.8827 2.65112 1
      vertex 53.5 0 1
      vertex 50.0556 2.74353 1
    endloop
  endfacet
  facet normal -0 0 1
    outer loop
      vertex 49.6951 2.59421 1
      vertex 53.5 0 1
      vertex 49.8827 2.65112 1
    endloop
  endfacet
  facet normal -0 0 1
    outer loop
      vertex 49.5 2.575 1
      vertex 53.5 0 1
      vertex 49.6951 2.59421 1
    endloop
  endfacet
  facet normal 0 0 1
    outer loop
      vertex 49.3049 2.59421 1
      vertex 53.5 0 1
      vertex 49.5 2.575 1
    endloop
  endfacet
  facet normal 0 0 1
    outer loop
      vertex 49.1173 2.65112 1
      vertex 53.5 0 1
      vertex 49.3049 2.59421 1
    endloop
  endfacet
  facet normal 0 0 1
    outer loop
      vertex 48.9444 2.74353 1
      vertex 53.5 0 1
      vertex 49.1173 2.65112 1
    endloop
  endfacet
  facet normal 0 0 1
    outer loop
      vertex 4.55579 3.77009 1
      vertex 48.5192 3.77009 1
      vertex 48.5761 3.95768 1
    endloop
  endfacet
  facet normal 0 0 1
    outer loop
      vertex 27.5183 116.77 1
      vertex 29.51 118.561 1
      vertex 29.0654 119.103 1
    endloop
  endfacet
  facet normal 0 0 1
    outer loop
      vertex 27.5183 116.77 1
      vertex 29.0654 119.103 1
      vertex 28.5237 119.548 1
    endloop
  endfacet
  facet normal 0 0 1
    outer loop
      vertex 30.0438 115.878 1
      vertex 27.5183 116.38 1
      vertex 29.8404 115.207 1
    endloop
  endfacet
  facet normal 0 0 1
    outer loop
      vertex 27.0931 117.406 1
      vertex 28.5237 119.548 1
      vertex 27.9056 119.878 1
    endloop
  endfacet
  facet normal -0 0 1
    outer loop
      vertex 27.4614 116.192 1
      vertex 29.8404 115.207 1
      vertex 27.5183 116.38 1
    endloop
  endfacet
  facet normal 0 0 1
    outer loop
      vertex 29.8404 115.207 1
      vertex 27.4614 116.192 1
      vertex 29.7298 115 1
    endloop
  endfacet
  facet normal -0 0 1
    outer loop
      vertex 27.369 116.019 1
      vertex 29.7298 115 1
      vertex 27.4614 116.192 1
    endloop
  endfacet
  facet normal -0 0 1
    outer loop
      vertex 27.2446 115.868 1
      vertex 29.7298 115 1
      vertex 27.369 116.019 1
    endloop
  endfacet
  facet normal -0 0 1
    outer loop
      vertex 27.0931 115.744 1
      vertex 29.7298 115 1
      vertex 27.2446 115.868 1
    endloop
  endfacet
  facet normal -0 0 1
    outer loop
      vertex 26.9202 115.651 1
      vertex 29.7298 115 1
      vertex 27.0931 115.744 1
    endloop
  endfacet
  facet normal -0 0 1
    outer loop
      vertex 26.7326 115.594 1
      vertex 29.7298 115 1
      vertex 26.9202 115.651 1
    endloop
  endfacet
  facet normal -0 0 1
    outer loop
      vertex 26.5375 115.575 1
      vertex 29.7298 115 1
      vertex 26.7326 115.594 1
    endloop
  endfacet
  facet normal 0 0 1
    outer loop
      vertex 29.7298 115 1
      vertex 26.5375 115.575 1
      vertex 23.3452 115 1
    endloop
  endfacet
  facet normal 0 0 1
    outer loop
      vertex 23.3452 115 1
      vertex 26.5375 115.575 1
      vertex 26.3424 115.594 1
    endloop
  endfacet
  facet normal 0 0 1
    outer loop
      vertex 23.3452 115 1
      vertex 26.3424 115.594 1
      vertex 26.1548 115.651 1
    endloop
  endfacet
  facet normal 0 0 1
    outer loop
      vertex 23.3452 115 1
      vertex 26.1548 115.651 1
      vertex 25.9819 115.744 1
    endloop
  endfacet
  facet normal 0 0 1
    outer loop
      vertex 23.3452 115 1
      vertex 25.9819 115.744 1
      vertex 25.8304 115.868 1
    endloop
  endfacet
  facet normal 0 0 1
    outer loop
      vertex 23.3452 115 1
      vertex 25.8304 115.868 1
      vertex 25.706 116.019 1
    endloop
  endfacet
  facet normal 0 0 1
    outer loop
      vertex 23.3452 115 1
      vertex 25.706 116.019 1
      vertex 25.6136 116.192 1
    endloop
  endfacet
  facet normal 0 0 1
    outer loop
      vertex 23.3452 115 1
      vertex 25.6136 116.192 1
      vertex 25.5567 116.38 1
    endloop
  endfacet
  facet normal 0 0 1
    outer loop
      vertex 25.706 117.131 1
      vertex 23.565 118.561 1
      vertex 25.6136 116.958 1
    endloop
  endfacet
  facet normal -0 0 1
    outer loop
      vertex 23.2346 117.943 1
      vertex 25.6136 116.958 1
      vertex 23.565 118.561 1
    endloop
  endfacet
  facet normal 0 0 1
    outer loop
      vertex 25.6136 116.958 1
      vertex 23.2346 117.943 1
      vertex 25.5567 116.77 1
    endloop
  endfacet
  facet normal -0 0 1
    outer loop
      vertex 23.0312 117.272 1
      vertex 25.5567 116.77 1
      vertex 23.2346 117.943 1
    endloop
  endfacet
  facet normal 0 0 1
    outer loop
      vertex 25.5375 116.575 1
      vertex 23.3452 115 1
      vertex 25.5567 116.38 1
    endloop
  endfacet
  facet normal 0 0 1
    outer loop
      vertex 48.5192 3.77009 1
      vertex 4.575 3.575 1
      vertex 48.5 3.575 1
    endloop
  endfacet
  facet normal 0 0 1
    outer loop
      vertex 48.5 3.575 1
      vertex 4.575 3.575 1
      vertex 48.5192 3.37991 1
    endloop
  endfacet
  facet normal 0 0 1
    outer loop
      vertex 4.55579 3.37991 1
      vertex 48.5192 3.37991 1
      vertex 4.575 3.575 1
    endloop
  endfacet
  facet normal 0 0 1
    outer loop
      vertex 48.5192 3.37991 1
      vertex 4.55579 3.37991 1
      vertex 48.5761 3.19232 1
    endloop
  endfacet
  facet normal 0 0 1
    outer loop
      vertex 4.49888 3.19232 1
      vertex 48.5761 3.19232 1
      vertex 4.55579 3.37991 1
    endloop
  endfacet
  facet normal 0 0 1
    outer loop
      vertex 48.5761 3.19232 1
      vertex 4.49888 3.19232 1
      vertex 48.6685 3.01943 1
    endloop
  endfacet
  facet normal 0 0 1
    outer loop
      vertex 4.40647 3.01943 1
      vertex 48.6685 3.01943 1
      vertex 4.49888 3.19232 1
    endloop
  endfacet
  facet normal 0 0 1
    outer loop
      vertex 48.6685 3.01943 1
      vertex 4.40647 3.01943 1
      vertex 48.7929 2.86789 1
    endloop
  endfacet
  facet normal 0 0 1
    outer loop
      vertex 4.28211 2.86789 1
      vertex 48.7929 2.86789 1
      vertex 4.40647 3.01943 1
    endloop
  endfacet
  facet normal 0 0 1
    outer loop
      vertex 48.7929 2.86789 1
      vertex 4.28211 2.86789 1
      vertex 48.9444 2.74353 1
    endloop
  endfacet
  facet normal 0 0 1
    outer loop
      vertex 4.13057 2.74353 1
      vertex 48.9444 2.74353 1
      vertex 4.28211 2.86789 1
    endloop
  endfacet
  facet normal 0 0 1
    outer loop
      vertex 0 0 1
      vertex 48.9444 2.74353 1
      vertex 4.13057 2.74353 1
    endloop
  endfacet
  facet normal 0 0 1
    outer loop
      vertex 0 0 1
      vertex 4.13057 2.74353 1
      vertex 3.95768 2.65112 1
    endloop
  endfacet
  facet normal 0 0 1
    outer loop
      vertex 0 0 1
      vertex 3.95768 2.65112 1
      vertex 3.77009 2.59421 1
    endloop
  endfacet
  facet normal 0 0 1
    outer loop
      vertex 0 0 1
      vertex 3.77009 2.59421 1
      vertex 3.575 2.575 1
    endloop
  endfacet
  facet normal 0 0 1
    outer loop
      vertex 48.9444 2.74353 1
      vertex 0 0 1
      vertex 53.5 0 1
    endloop
  endfacet
  facet normal 0 0 1
    outer loop
      vertex 3.37991 2.59421 1
      vertex 0 0 1
      vertex 3.575 2.575 1
    endloop
  endfacet
  facet normal 0 0 1
    outer loop
      vertex 3.19232 2.65112 1
      vertex 0 0 1
      vertex 3.37991 2.59421 1
    endloop
  endfacet
  facet normal 0 0 1
    outer loop
      vertex 3.01943 2.74353 1
      vertex 0 0 1
      vertex 3.19232 2.65112 1
    endloop
  endfacet
  facet normal 0 0 1
    outer loop
      vertex 2.86789 2.86789 1
      vertex 0 0 1
      vertex 3.01943 2.74353 1
    endloop
  endfacet
  facet normal 0 0 1
    outer loop
      vertex 2.74353 3.01943 1
      vertex 0 0 1
      vertex 2.86789 2.86789 1
    endloop
  endfacet
  facet normal 0 0 1
    outer loop
      vertex 2.65112 3.19232 1
      vertex 0 0 1
      vertex 2.74353 3.01943 1
    endloop
  endfacet
  facet normal 0 0 1
    outer loop
      vertex 2.59421 3.37991 1
      vertex 0 0 1
      vertex 2.65112 3.19232 1
    endloop
  endfacet
  facet normal 0 0 1
    outer loop
      vertex 2.575 3.575 1
      vertex 0 0 1
      vertex 2.59421 3.37991 1
    endloop
  endfacet
  facet normal 0 0 1
    outer loop
      vertex 2.59421 3.77009 1
      vertex 0 0 1
      vertex 2.575 3.575 1
    endloop
  endfacet
  facet normal 0 0 -1
    outer loop
      vertex 50.4808 3.77009 0
      vertex 53.5 0 0
      vertex 50.5 3.575 0
    endloop
  endfacet
  facet normal 0 0 -1
    outer loop
      vertex 53.5 0 0
      vertex 50.4808 3.37991 0
      vertex 50.5 3.575 0
    endloop
  endfacet
  facet normal 0 0 -1
    outer loop
      vertex 53.5 0 0
      vertex 50.4239 3.19232 0
      vertex 50.4808 3.37991 0
    endloop
  endfacet
  facet normal 0 0 -1
    outer loop
      vertex 53.5 0 0
      vertex 50.3315 3.01943 0
      vertex 50.4239 3.19232 0
    endloop
  endfacet
  facet normal 0 0 -1
    outer loop
      vertex 53.5 0 0
      vertex 50.2071 2.86789 0
      vertex 50.3315 3.01943 0
    endloop
  endfacet
  facet normal 0 0 -1
    outer loop
      vertex 53.5 0 0
      vertex 50.0556 2.74353 0
      vertex 50.2071 2.86789 0
    endloop
  endfacet
  facet normal 0 0 -1
    outer loop
      vertex 53.5 0 0
      vertex 49.8827 2.65112 0
      vertex 50.0556 2.74353 0
    endloop
  endfacet
  facet normal 0 0 -1
    outer loop
      vertex 53.5 0 0
      vertex 49.6951 2.59421 0
      vertex 49.8827 2.65112 0
    endloop
  endfacet
  facet normal 0 0 -1
    outer loop
      vertex 53.5 0 0
      vertex 49.5 2.575 0
      vertex 49.6951 2.59421 0
    endloop
  endfacet
  facet normal 0 0 -1
    outer loop
      vertex 53.5 0 0
      vertex 49.3049 2.59421 0
      vertex 49.5 2.575 0
    endloop
  endfacet
  facet normal 0 0 -1
    outer loop
      vertex 53.5 0 0
      vertex 49.1173 2.65112 0
      vertex 49.3049 2.59421 0
    endloop
  endfacet
  facet normal 0 0 -1
    outer loop
      vertex 53.5 0 0
      vertex 48.9444 2.74353 0
      vertex 49.1173 2.65112 0
    endloop
  endfacet
  facet normal 0 0 -1
    outer loop
      vertex 4.575 3.575 0
      vertex 48.5 3.575 0
      vertex 48.5192 3.37991 0
    endloop
  endfacet
  facet normal -0 0 -1
    outer loop
      vertex 30.0438 117.272 0
      vertex 27.5183 116.77 0
      vertex 29.8404 117.943 0
    endloop
  endfacet
  facet normal -0 0 -1
    outer loop
      vertex 29.8404 117.943 0
      vertex 27.4614 116.958 0
      vertex 29.51 118.561 0
    endloop
  endfacet
  facet normal 0 0 -1
    outer loop
      vertex 48.5 3.575 0
      vertex 3.95768 4.49888 0
      vertex 29.7298 115 0
    endloop
  endfacet
  facet normal 0 -0 -1
    outer loop
      vertex 27.5375 116.575 0
      vertex 29.7298 115 0
      vertex 27.5183 116.38 0
    endloop
  endfacet
  facet normal 0 0 -1
    outer loop
      vertex 27.369 117.131 0
      vertex 29.51 118.561 0
      vertex 27.4614 116.958 0
    endloop
  endfacet
  facet normal 0 0 -1
    outer loop
      vertex 27.4614 116.958 0
      vertex 29.8404 117.943 0
      vertex 27.5183 116.77 0
    endloop
  endfacet
  facet normal 0 0 -1
    outer loop
      vertex 29.7298 115 0
      vertex 27.4614 116.192 0
      vertex 27.5183 116.38 0
    endloop
  endfacet
  facet normal 0 0 -1
    outer loop
      vertex 29.7298 115 0
      vertex 27.369 116.019 0
      vertex 27.4614 116.192 0
    endloop
  endfacet
  facet normal 0 0 -1
    outer loop
      vertex 29.7298 115 0
      vertex 27.2446 115.868 0
      vertex 27.369 116.019 0
    endloop
  endfacet
  facet normal 0 0 -1
    outer loop
      vertex 29.7298 115 0
      vertex 27.0931 115.744 0
      vertex 27.2446 115.868 0
    endloop
  endfacet
  facet normal 0 0 -1
    outer loop
      vertex 29.7298 115 0
      vertex 26.9202 115.651 0
      vertex 27.0931 115.744 0
    endloop
  endfacet
  facet normal 0 0 -1
    outer loop
      vertex 29.7298 115 0
      vertex 26.7326 115.594 0
      vertex 26.9202 115.651 0
    endloop
  endfacet
  facet normal 0 -0 -1
    outer loop
      vertex 26.5375 115.575 0
      vertex 29.7298 115 0
      vertex 23.3452 115 0
    endloop
  endfacet
  facet normal 0 0 -1
    outer loop
      vertex 29.7298 115 0
      vertex 26.5375 115.575 0
      vertex 26.7326 115.594 0
    endloop
  endfacet
  facet normal -0 0 -1
    outer loop
      vertex 26.5375 115.575 0
      vertex 23.3452 115 0
      vertex 26.3424 115.594 0
    endloop
  endfacet
  facet normal -0 0 -1
    outer loop
      vertex 26.3424 115.594 0
      vertex 23.3452 115 0
      vertex 26.1548 115.651 0
    endloop
  endfacet
  facet normal -0 0 -1
    outer loop
      vertex 26.1548 115.651 0
      vertex 23.3452 115 0
      vertex 25.9819 115.744 0
    endloop
  endfacet
  facet normal -0 0 -1
    outer loop
      vertex 25.9819 115.744 0
      vertex 23.3452 115 0
      vertex 25.8304 115.868 0
    endloop
  endfacet
  facet normal -0 0 -1
    outer loop
      vertex 25.8304 115.868 0
      vertex 23.3452 115 0
      vertex 25.706 116.019 0
    endloop
  endfacet
  facet normal -0 0 -1
    outer loop
      vertex 25.706 116.019 0
      vertex 23.3452 115 0
      vertex 25.6136 116.192 0
    endloop
  endfacet
  facet normal 0 0 -1
    outer loop
      vertex 22.9625 116.575 0
      vertex 25.5375 116.575 0
      vertex 25.5567 116.38 0
    endloop
  endfacet
  facet normal 0 0 -1
    outer loop
      vertex 25.5375 116.575 0
      vertex 24.5513 119.548 0
      vertex 25.1694 119.878 0
    endloop
  endfacet
  facet normal 0 0 -1
    outer loop
      vertex 23.2346 115.207 0
      vertex 25.6136 116.192 0
      vertex 23.3452 115 0
    endloop
  endfacet
  facet normal -0 0 -1
    outer loop
      vertex 25.6136 116.192 0
      vertex 23.2346 115.207 0
      vertex 25.5567 116.38 0
    endloop
  endfacet
  facet normal 0 0 -1
    outer loop
      vertex 25.5375 116.575 0
      vertex 24.0096 119.103 0
      vertex 24.5513 119.548 0
    endloop
  endfacet
  facet normal 0 0 -1
    outer loop
      vertex 25.5375 116.575 0
      vertex 23.565 118.561 0
      vertex 24.0096 119.103 0
    endloop
  endfacet
  facet normal 0 0 -1
    outer loop
      vertex 48.5 3.575 0
      vertex 4.575 3.575 0
      vertex 4.55579 3.77009 0
    endloop
  endfacet
  facet normal 0 0 -1
    outer loop
      vertex 4.55579 3.37991 0
      vertex 48.5192 3.37991 0
      vertex 48.5761 3.19232 0
    endloop
  endfacet
  facet normal 0 0 -1
    outer loop
      vertex 4.49888 3.19232 0
      vertex 48.5761 3.19232 0
      vertex 48.6685 3.01943 0
    endloop
  endfacet
  facet normal 0 0 -1
    outer loop
      vertex 4.40647 3.01943 0
      vertex 48.6685 3.01943 0
      vertex 48.7929 2.86789 0
    endloop
  endfacet
  facet normal 0 0 -1
    outer loop
      vertex 4.28211 2.86789 0
      vertex 48.7929 2.86789 0
      vertex 48.9444 2.74353 0
    endloop
  endfacet
  facet normal 0 0 -1
    outer loop
      vertex 0 0 0
      vertex 48.9444 2.74353 0
      vertex 53.5 0 0
    endloop
  endfacet
  facet normal 0 0 -1
    outer loop
      vertex 48.5192 3.37991 0
      vertex 4.55579 3.37991 0
      vertex 4.575 3.575 0
    endloop
  endfacet
  facet normal 0 0 -1
    outer loop
      vertex 48.5761 3.19232 0
      vertex 4.49888 3.19232 0
      vertex 4.55579 3.37991 0
    endloop
  endfacet
  facet normal 0 0 -1
    outer loop
      vertex 48.6685 3.01943 0
      vertex 4.40647 3.01943 0
      vertex 4.49888 3.19232 0
    endloop
  endfacet
  facet normal 0 0 -1
    outer loop
      vertex 48.7929 2.86789 0
      vertex 4.28211 2.86789 0
      vertex 4.40647 3.01943 0
    endloop
  endfacet
  facet normal 0 0 -1
    outer loop
      vertex 48.9444 2.74353 0
      vertex 4.13057 2.74353 0
      vertex 4.28211 2.86789 0
    endloop
  endfacet
  facet normal -0 0 -1
    outer loop
      vertex 48.9444 2.74353 0
      vertex 0 0 0
      vertex 4.13057 2.74353 0
    endloop
  endfacet
  facet normal 0 0 -1
    outer loop
      vertex 4.13057 2.74353 0
      vertex 0 0 0
      vertex 3.95768 2.65112 0
    endloop
  endfacet
  facet normal 0 0 -1
    outer loop
      vertex 3.95768 2.65112 0
      vertex 0 0 0
      vertex 3.77009 2.59421 0
    endloop
  endfacet
  facet normal -0 0 -1
    outer loop
      vertex 2.59421 3.37991 0
      vertex 0 0 0
      vertex 2.575 3.575 0
    endloop
  endfacet
  facet normal -0 0 -1
    outer loop
      vertex 2.65112 3.19232 0
      vertex 0 0 0
      vertex 2.59421 3.37991 0
    endloop
  endfacet
  facet normal -0 0 -1
    outer loop
      vertex 2.74353 3.01943 0
      vertex 0 0 0
      vertex 2.65112 3.19232 0
    endloop
  endfacet
  facet normal -0 0 -1
    outer loop
      vertex 2.86789 2.86789 0
      vertex 0 0 0
      vertex 2.74353 3.01943 0
    endloop
  endfacet
  facet normal -0 0 -1
    outer loop
      vertex 3.01943 2.74353 0
      vertex 0 0 0
      vertex 2.86789 2.86789 0
    endloop
  endfacet
  facet normal -0 0 -1
    outer loop
      vertex 3.19232 2.65112 0
      vertex 0 0 0
      vertex 3.01943 2.74353 0
    endloop
  endfacet
  facet normal -0 0 -1
    outer loop
      vertex 3.37991 2.59421 0
      vertex 0 0 0
      vertex 3.19232 2.65112 0
    endloop
  endfacet
  facet normal -0 0 -1
    outer loop
      vertex 3.575 2.575 0
      vertex 0 0 0
      vertex 3.37991 2.59421 0
    endloop
  endfacet
  facet normal 0 0 -1
    outer loop
      vertex 3.77009 2.59421 0
      vertex 0 0 0
      vertex 3.575 2.575 0
    endloop
  endfacet
  facet normal 0 0 -1
    outer loop
      vertex 50.4239 3.95768 0
      vertex 53.5 0 0
      vertex 50.4808 3.77009 0
    endloop
  endfacet
  facet normal 0 0 -1
    outer loop
      vertex 50.3315 4.13057 0
      vertex 53.5 0 0
      vertex 50.4239 3.95768 0
    endloop
  endfacet
  facet normal 0 0 -1
    outer loop
      vertex 53.5 0 0
      vertex 50.3315 4.13057 0
      vertex 53.5 115 0
    endloop
  endfacet
  facet normal 0 0 -1
    outer loop
      vertex 50.2071 4.28211 0
      vertex 53.5 115 0
      vertex 50.3315 4.13057 0
    endloop
  endfacet
  facet normal 0 0 -1
    outer loop
      vertex 50.0556 4.40647 0
      vertex 53.5 115 0
      vertex 50.2071 4.28211 0
    endloop
  endfacet
  facet normal 0 0 -1
    outer loop
      vertex 49.8827 4.49888 0
      vertex 53.5 115 0
      vertex 50.0556 4.40647 0
    endloop
  endfacet
  facet normal 0 0 -1
    outer loop
      vertex 49.6951 4.55579 0
      vertex 53.5 115 0
      vertex 49.8827 4.49888 0
    endloop
  endfacet
  facet normal 0 0 -1
    outer loop
      vertex 49.5 4.575 0
      vertex 53.5 115 0
      vertex 49.6951 4.55579 0
    endloop
  endfacet
  facet normal 0 0 -1
    outer loop
      vertex 49.3049 4.55579 0
      vertex 53.5 115 0
      vertex 49.5 4.575 0
    endloop
  endfacet
  facet normal 0 0 -1
    outer loop
      vertex 29.7298 115 0
      vertex 49.3049 4.55579 0
      vertex 49.1173 4.49888 0
    endloop
  endfacet
  facet normal 0 0 -1
    outer loop
      vertex 29.7298 115 0
      vertex 49.1173 4.49888 0
      vertex 48.9444 4.40647 0
    endloop
  endfacet
  facet normal 0 0 -1
    outer loop
      vertex 29.7298 115 0
      vertex 48.9444 4.40647 0
      vertex 48.7929 4.28211 0
    endloop
  endfacet
  facet normal 0 0 -1
    outer loop
      vertex 29.7298 115 0
      vertex 48.7929 4.28211 0
      vertex 48.6685 4.13057 0
    endloop
  endfacet
  facet normal 0 0 -1
    outer loop
      vertex 29.7298 115 0
      vertex 48.6685 4.13057 0
      vertex 48.5761 3.95768 0
    endloop
  endfacet
  facet normal 0 0 -1
    outer loop
      vertex 29.7298 115 0
      vertex 48.5761 3.95768 0
      vertex 48.5192 3.77009 0
    endloop
  endfacet
  facet normal 0 0 -1
    outer loop
      vertex 29.7298 115 0
      vertex 48.5192 3.77009 0
      vertex 48.5 3.575 0
    endloop
  endfacet
  facet normal 0 0 -1
    outer loop
      vertex 49.3049 4.55579 0
      vertex 29.7298 115 0
      vertex 53.5 115 0
    endloop
  endfacet
  facet normal 0 0 -1
    outer loop
      vertex 27.5375 116.575 0
      vertex 30.1125 116.575 0
      vertex 30.0438 115.878 0
    endloop
  endfacet
  facet normal 0 0 -1
    outer loop
      vertex 27.5375 116.575 0
      vertex 29.8404 115.207 0
      vertex 29.7298 115 0
    endloop
  endfacet
  facet normal 0 0 -1
    outer loop
      vertex 29.8404 115.207 0
      vertex 27.5375 116.575 0
      vertex 30.0438 115.878 0
    endloop
  endfacet
  facet normal 0 0 -1
    outer loop
      vertex 30.1125 116.575 0
      vertex 27.5375 116.575 0
      vertex 30.0438 117.272 0
    endloop
  endfacet
  facet normal 0 0 -1
    outer loop
      vertex 27.5183 116.77 0
      vertex 30.0438 117.272 0
      vertex 27.5375 116.575 0
    endloop
  endfacet
  facet normal -0 0 -1
    outer loop
      vertex 29.51 118.561 0
      vertex 27.369 117.131 0
      vertex 29.0654 119.103 0
    endloop
  endfacet
  facet normal 0 0 -1
    outer loop
      vertex 27.2446 117.282 0
      vertex 29.0654 119.103 0
      vertex 27.369 117.131 0
    endloop
  endfacet
  facet normal -0 0 -1
    outer loop
      vertex 29.0654 119.103 0
      vertex 27.2446 117.282 0
      vertex 28.5237 119.548 0
    endloop
  endfacet
  facet normal 0 0 -1
    outer loop
      vertex 27.0931 117.406 0
      vertex 28.5237 119.548 0
      vertex 27.2446 117.282 0
    endloop
  endfacet
  facet normal -0 0 -1
    outer loop
      vertex 28.5237 119.548 0
      vertex 27.0931 117.406 0
      vertex 27.9056 119.878 0
    endloop
  endfacet
  facet normal 0 0 -1
    outer loop
      vertex 26.9202 117.499 0
      vertex 27.9056 119.878 0
      vertex 27.0931 117.406 0
    endloop
  endfacet
  facet normal -0 0 -1
    outer loop
      vertex 27.9056 119.878 0
      vertex 26.9202 117.499 0
      vertex 27.2349 120.081 0
    endloop
  endfacet
  facet normal 0 0 -1
    outer loop
      vertex 26.7326 117.556 0
      vertex 27.2349 120.081 0
      vertex 26.9202 117.499 0
    endloop
  endfacet
  facet normal 0 0 -1
    outer loop
      vertex 26.5375 117.575 0
      vertex 27.2349 120.081 0
      vertex 26.7326 117.556 0
    endloop
  endfacet
  facet normal 0 0 -1
    outer loop
      vertex 26.5375 117.575 0
      vertex 26.5375 120.15 0
      vertex 27.2349 120.081 0
    endloop
  endfacet
  facet normal 0 0 -1
    outer loop
      vertex 26.3424 117.556 0
      vertex 26.5375 120.15 0
      vertex 26.5375 117.575 0
    endloop
  endfacet
  facet normal 0 0 -1
    outer loop
      vertex 25.8401 120.081 0
      vertex 26.3424 117.556 0
      vertex 26.1548 117.499 0
    endloop
  endfacet
  facet normal 0 0 -1
    outer loop
      vertex 25.1694 119.878 0
      vertex 26.1548 117.499 0
      vertex 25.9819 117.406 0
    endloop
  endfacet
  facet normal 0 0 -1
    outer loop
      vertex 26.3424 117.556 0
      vertex 25.8401 120.081 0
      vertex 26.5375 120.15 0
    endloop
  endfacet
  facet normal 0 0 -1
    outer loop
      vertex 25.1694 119.878 0
      vertex 25.9819 117.406 0
      vertex 25.8304 117.282 0
    endloop
  endfacet
  facet normal 0 0 -1
    outer loop
      vertex 25.1694 119.878 0
      vertex 25.8304 117.282 0
      vertex 25.706 117.131 0
    endloop
  endfacet
  facet normal 0 0 -1
    outer loop
      vertex 25.1694 119.878 0
      vertex 25.706 117.131 0
      vertex 25.6136 116.958 0
    endloop
  endfacet
  facet normal 0 0 -1
    outer loop
      vertex 25.1694 119.878 0
      vertex 25.6136 116.958 0
      vertex 25.5567 116.77 0
    endloop
  endfacet
  facet normal 0 0 -1
    outer loop
      vertex 25.1694 119.878 0
      vertex 25.5567 116.77 0
      vertex 25.5375 116.575 0
    endloop
  endfacet
  facet normal 0 0 -1
    outer loop
      vertex 26.1548 117.499 0
      vertex 25.1694 119.878 0
      vertex 25.8401 120.081 0
    endloop
  endfacet
  facet normal 0 0 -1
    outer loop
      vertex 25.5567 116.38 0
      vertex 23.2346 115.207 0
      vertex 23.0312 115.878 0
    endloop
  endfacet
  facet normal 0 0 -1
    outer loop
      vertex 25.5375 116.575 0
      vertex 23.2346 117.943 0
      vertex 23.565 118.561 0
    endloop
  endfacet
  facet normal 0 0 -1
    outer loop
      vertex 22.9625 116.575 0
      vertex 25.5567 116.38 0
      vertex 23.0312 115.878 0
    endloop
  endfacet
  facet normal 0 0 -1
    outer loop
      vertex 25.5375 116.575 0
      vertex 23.0312 117.272 0
      vertex 23.2346 117.943 0
    endloop
  endfacet
  facet normal 0 0 -1
    outer loop
      vertex 25.5375 116.575 0
      vertex 22.9625 116.575 0
      vertex 23.0312 117.272 0
    endloop
  endfacet
  facet normal 0 0 -1
    outer loop
      vertex 48.5 3.575 0
      vertex 4.55579 3.77009 0
      vertex 4.49888 3.95768 0
    endloop
  endfacet
  facet normal 0 0 -1
    outer loop
      vertex 48.5 3.575 0
      vertex 4.49888 3.95768 0
      vertex 4.40647 4.13057 0
    endloop
  endfacet
  facet normal 0 0 -1
    outer loop
      vertex 48.5 3.575 0
      vertex 4.40647 4.13057 0
      vertex 4.28211 4.28211 0
    endloop
  endfacet
  facet normal 0 0 -1
    outer loop
      vertex 48.5 3.575 0
      vertex 4.28211 4.28211 0
      vertex 4.13057 4.40647 0
    endloop
  endfacet
  facet normal 0 0 -1
    outer loop
      vertex 48.5 3.575 0
      vertex 4.13057 4.40647 0
      vertex 3.95768 4.49888 0
    endloop
  endfacet
  facet normal -0 0 -1
    outer loop
      vertex 29.7298 115 0
      vertex 3.95768 4.49888 0
      vertex 23.3452 115 0
    endloop
  endfacet
  facet normal 0 0 -1
    outer loop
      vertex 3.77009 4.55579 0
      vertex 23.3452 115 0
      vertex 3.95768 4.49888 0
    endloop
  endfacet
  facet normal 0 0 -1
    outer loop
      vertex 0 115 0
      vertex 3.77009 4.55579 0
      vertex 3.575 4.575 0
    endloop
  endfacet
  facet normal 0 0 -1
    outer loop
      vertex 0 115 0
      vertex 3.575 4.575 0
      vertex 3.37991 4.55579 0
    endloop
  endfacet
  facet normal 0 0 -1
    outer loop
      vertex 0 115 0
      vertex 3.37991 4.55579 0
      vertex 3.19232 4.49888 0
    endloop
  endfacet
  facet normal 0 0 -1
    outer loop
      vertex 0 115 0
      vertex 3.19232 4.49888 0
      vertex 3.01943 4.40647 0
    endloop
  endfacet
  facet normal 0 0 -1
    outer loop
      vertex 0 115 0
      vertex 3.01943 4.40647 0
      vertex 2.86789 4.28211 0
    endloop
  endfacet
  facet normal 0 0 -1
    outer loop
      vertex 0 115 0
      vertex 2.86789 4.28211 0
      vertex 2.74353 4.13057 0
    endloop
  endfacet
  facet normal 0 0 -1
    outer loop
      vertex 0 0 0
      vertex 2.74353 4.13057 0
      vertex 2.65112 3.95768 0
    endloop
  endfacet
  facet normal 0 0 -1
    outer loop
      vertex 0 0 0
      vertex 2.65112 3.95768 0
      vertex 2.59421 3.77009 0
    endloop
  endfacet
  facet normal 0 0 -1
    outer loop
      vertex 0 0 0
      vertex 2.59421 3.77009 0
      vertex 2.575 3.575 0
    endloop
  endfacet
  facet normal -0 0 -1
    outer loop
      vertex 2.74353 4.13057 0
      vertex 0 0 0
      vertex 0 115 0
    endloop
  endfacet
  facet normal 0 0 -1
    outer loop
      vertex 3.77009 4.55579 0
      vertex 0 115 0
      vertex 23.3452 115 0
    endloop
  endfacet
  facet normal -1 0 0
    outer loop
      vertex 0 0 0
      vertex 0 115 1
      vertex 0 115 0
    endloop
  endfacet
  facet normal -1 -0 0
    outer loop
      vertex 0 115 1
      vertex 0 0 0
      vertex 0 0 1
    endloop
  endfacet
  facet normal 0 1 -0
    outer loop
      vertex 23.3452 115 0
      vertex 0 115 1
      vertex 23.3452 115 1
    endloop
  endfacet
  facet normal 0 1 0
    outer loop
      vertex 0 115 1
      vertex 23.3452 115 0
      vertex 0 115 0
    endloop
  endfacet
  facet normal 0 1 -0
    outer loop
      vertex 53.5 115 0
      vertex 29.7298 115 1
      vertex 53.5 115 1
    endloop
  endfacet
  facet normal 0 1 0
    outer loop
      vertex 29.7298 115 1
      vertex 53.5 115 0
      vertex 29.7298 115 0
    endloop
  endfacet
  facet normal 0 -1 0
    outer loop
      vertex 0 0 0
      vertex 53.5 0 1
      vertex 0 0 1
    endloop
  endfacet
  facet normal 0 -1 -0
    outer loop
      vertex 53.5 0 1
      vertex 0 0 0
      vertex 53.5 0 0
    endloop
  endfacet
  facet normal 0.995178 -0.09809 0
    outer loop
      vertex 30.0438 115.878 1
      vertex 30.1125 116.575 0
      vertex 30.1125 116.575 1
    endloop
  endfacet
  facet normal 0.995178 -0.09809 0
    outer loop
      vertex 30.1125 116.575 0
      vertex 30.0438 115.878 1
      vertex 30.0438 115.878 0
    endloop
  endfacet
  facet normal 0.881999 -0.471252 0
    outer loop
      vertex 29.7298 115 1
      vertex 29.8404 115.207 0
      vertex 29.8404 115.207 1
    endloop
  endfacet
  facet normal 0.881999 -0.471252 0
    outer loop
      vertex 29.8404 115.207 0
      vertex 29.7298 115 1
      vertex 29.7298 115 0
    endloop
  endfacet
  facet normal 0.881878 0.471477 0
    outer loop
      vertex 29.8404 117.943 1
      vertex 29.51 118.561 0
      vertex 29.51 118.561 1
    endloop
  endfacet
  facet normal 0.881878 0.471477 0
    outer loop
      vertex 29.51 118.561 0
      vertex 29.8404 117.943 1
      vertex 29.8404 117.943 0
    endloop
  endfacet
  facet normal -0.995178 0.09809 0
    outer loop
      vertex 22.9625 116.575 0
      vertex 23.0312 117.272 1
      vertex 23.0312 117.272 0
    endloop
  endfacet
  facet normal -0.995178 0.09809 0
    outer loop
      vertex 23.0312 117.272 1
      vertex 22.9625 116.575 0
      vertex 22.9625 116.575 1
    endloop
  endfacet
  facet normal -0.0984582 0.995141 0
    outer loop
      vertex 26.5375 120.15 0
      vertex 25.8401 120.081 1
      vertex 26.5375 120.15 1
    endloop
  endfacet
  facet normal -0.0984582 0.995141 0
    outer loop
      vertex 25.8401 120.081 1
      vertex 26.5375 120.15 0
      vertex 25.8401 120.081 0
    endloop
  endfacet
  facet normal 0.995178 0.09809 0
    outer loop
      vertex 30.1125 116.575 1
      vertex 30.0438 117.272 0
      vertex 30.0438 117.272 1
    endloop
  endfacet
  facet normal 0.995178 0.09809 0
    outer loop
      vertex 30.0438 117.272 0
      vertex 30.1125 116.575 1
      vertex 30.1125 116.575 0
    endloop
  endfacet
  facet normal 0.289691 0.95712 -0
    outer loop
      vertex 27.9056 119.878 0
      vertex 27.2349 120.081 1
      vertex 27.9056 119.878 1
    endloop
  endfacet
  facet normal 0.289691 0.95712 0
    outer loop
      vertex 27.2349 120.081 1
      vertex 27.9056 119.878 0
      vertex 27.2349 120.081 0
    endloop
  endfacet
  facet normal 0.956998 0.290094 0
    outer loop
      vertex 30.0438 117.272 1
      vertex 29.8404 117.943 0
      vertex 29.8404 117.943 1
    endloop
  endfacet
  facet normal 0.956998 0.290094 0
    outer loop
      vertex 29.8404 117.943 0
      vertex 30.0438 117.272 1
      vertex 30.0438 117.272 0
    endloop
  endfacet
  facet normal -0.289691 0.95712 0
    outer loop
      vertex 25.8401 120.081 0
      vertex 25.1694 119.878 1
      vertex 25.8401 120.081 1
    endloop
  endfacet
  facet normal -0.289691 0.95712 0
    outer loop
      vertex 25.1694 119.878 1
      vertex 25.8401 120.081 0
      vertex 25.1694 119.878 0
    endloop
  endfacet
  facet normal -0.956998 0.290094 0
    outer loop
      vertex 23.0312 117.272 0
      vertex 23.2346 117.943 1
      vertex 23.2346 117.943 0
    endloop
  endfacet
  facet normal -0.956998 0.290094 0
    outer loop
      vertex 23.2346 117.943 1
      vertex 23.0312 117.272 0
      vertex 23.0312 117.272 1
    endloop
  endfacet
  facet normal 0.470973 0.882147 -0
    outer loop
      vertex 28.5237 119.548 0
      vertex 27.9056 119.878 1
      vertex 28.5237 119.548 1
    endloop
  endfacet
  facet normal 0.470973 0.882147 0
    outer loop
      vertex 27.9056 119.878 1
      vertex 28.5237 119.548 0
      vertex 27.9056 119.878 0
    endloop
  endfacet
  facet normal -0.634767 0.772704 0
    outer loop
      vertex 24.5513 119.548 0
      vertex 24.0096 119.103 1
      vertex 24.5513 119.548 1
    endloop
  endfacet
  facet normal -0.634767 0.772704 0
    outer loop
      vertex 24.0096 119.103 1
      vertex 24.5513 119.548 0
      vertex 24.0096 119.103 0
    endloop
  endfacet
  facet normal -0.773156 0.634216 0
    outer loop
      vertex 23.565 118.561 0
      vertex 24.0096 119.103 1
      vertex 24.0096 119.103 0
    endloop
  endfacet
  facet normal -0.773156 0.634216 0
    outer loop
      vertex 24.0096 119.103 1
      vertex 23.565 118.561 0
      vertex 23.565 118.561 1
    endloop
  endfacet
  facet normal 0.634767 0.772704 -0
    outer loop
      vertex 29.0654 119.103 0
      vertex 28.5237 119.548 1
      vertex 29.0654 119.103 1
    endloop
  endfacet
  facet normal 0.634767 0.772704 0
    outer loop
      vertex 28.5237 119.548 1
      vertex 29.0654 119.103 0
      vertex 28.5237 119.548 0
    endloop
  endfacet
  facet normal -0.995178 -0.09809 0
    outer loop
      vertex 23.0312 115.878 0
      vertex 22.9625 116.575 1
      vertex 22.9625 116.575 0
    endloop
  endfacet
  facet normal -0.995178 -0.09809 0
    outer loop
      vertex 22.9625 116.575 1
      vertex 23.0312 115.878 0
      vertex 23.0312 115.878 1
    endloop
  endfacet
  facet normal 0.956998 -0.290094 0
    outer loop
      vertex 29.8404 115.207 1
      vertex 30.0438 115.878 0
      vertex 30.0438 115.878 1
    endloop
  endfacet
  facet normal 0.956998 -0.290094 0
    outer loop
      vertex 30.0438 115.878 0
      vertex 29.8404 115.207 1
      vertex 29.8404 115.207 0
    endloop
  endfacet
  facet normal 0.773156 0.634216 0
    outer loop
      vertex 29.51 118.561 1
      vertex 29.0654 119.103 0
      vertex 29.0654 119.103 1
    endloop
  endfacet
  facet normal 0.773156 0.634216 0
    outer loop
      vertex 29.0654 119.103 0
      vertex 29.51 118.561 1
      vertex 29.51 118.561 0
    endloop
  endfacet
  facet normal -0.881878 0.471477 0
    outer loop
      vertex 23.2346 117.943 0
      vertex 23.565 118.561 1
      vertex 23.565 118.561 0
    endloop
  endfacet
  facet normal -0.881878 0.471477 0
    outer loop
      vertex 23.565 118.561 1
      vertex 23.2346 117.943 0
      vertex 23.2346 117.943 1
    endloop
  endfacet
  facet normal -0.470973 0.882147 0
    outer loop
      vertex 25.1694 119.878 0
      vertex 24.5513 119.548 1
      vertex 25.1694 119.878 1
    endloop
  endfacet
  facet normal -0.470973 0.882147 0
    outer loop
      vertex 24.5513 119.548 1
      vertex 25.1694 119.878 0
      vertex 24.5513 119.548 0
    endloop
  endfacet
  facet normal -0.881999 -0.471252 0
    outer loop
      vertex 23.3452 115 0
      vertex 23.2346 115.207 1
      vertex 23.2346 115.207 0
    endloop
  endfacet
  facet normal -0.881999 -0.471252 0
    outer loop
      vertex 23.2346 115.207 1
      vertex 23.3452 115 0
      vertex 23.3452 115 1
    endloop
  endfacet
  facet normal -0.956998 -0.290094 0
    outer loop
      vertex 23.2346 115.207 0
      vertex 23.0312 115.878 1
      vertex 23.0312 115.878 0
    endloop
  endfacet
  facet normal -0.956998 -0.290094 0
    outer loop
      vertex 23.0312 115.878 1
      vertex 23.2346 115.207 0
      vertex 23.2346 115.207 1
    endloop
  endfacet
  facet normal 0.0984582 0.995141 -0
    outer loop
      vertex 27.2349 120.081 0
      vertex 26.5375 120.15 1
      vertex 27.2349 120.081 1
    endloop
  endfacet
  facet normal 0.0984582 0.995141 0
    outer loop
      vertex 26.5375 120.15 1
      vertex 27.2349 120.081 0
      vertex 26.5375 120.15 0
    endloop
  endfacet
  facet normal 0.957123 0.289682 0
    outer loop
      vertex 25.6136 116.192 1
      vertex 25.5567 116.38 0
      vertex 25.5567 116.38 1
    endloop
  endfacet
  facet normal 0.957123 0.289682 0
    outer loop
      vertex 25.5567 116.38 0
      vertex 25.6136 116.192 1
      vertex 25.6136 116.192 0
    endloop
  endfacet
  facet normal -0.957123 -0.289682 0
    outer loop
      vertex 27.5183 116.77 0
      vertex 27.4614 116.958 1
      vertex 27.4614 116.958 0
    endloop
  endfacet
  facet normal -0.957123 -0.289682 0
    outer loop
      vertex 27.4614 116.958 1
      vertex 27.5183 116.77 0
      vertex 27.5183 116.77 1
    endloop
  endfacet
  facet normal -0.995188 -0.0979877 0
    outer loop
      vertex 27.5375 116.575 0
      vertex 27.5183 116.77 1
      vertex 27.5183 116.77 0
    endloop
  endfacet
  facet normal -0.995188 -0.0979877 0
    outer loop
      vertex 27.5183 116.77 1
      vertex 27.5375 116.575 0
      vertex 27.5375 116.575 1
    endloop
  endfacet
  facet normal -0.882071 -0.471117 0
    outer loop
      vertex 27.4614 116.958 0
      vertex 27.369 117.131 1
      vertex 27.369 117.131 0
    endloop
  endfacet
  facet normal -0.882071 -0.471117 0
    outer loop
      vertex 27.369 117.131 1
      vertex 27.4614 116.958 0
      vertex 27.4614 116.958 1
    endloop
  endfacet
  facet normal -0.995188 0.0979877 0
    outer loop
      vertex 27.5183 116.38 0
      vertex 27.5375 116.575 1
      vertex 27.5375 116.575 0
    endloop
  endfacet
  facet normal -0.995188 0.0979877 0
    outer loop
      vertex 27.5375 116.575 1
      vertex 27.5183 116.38 0
      vertex 27.5183 116.38 1
    endloop
  endfacet
  facet normal 0.0969274 -0.995291 0
    outer loop
      vertex 26.3424 117.556 0
      vertex 26.5375 117.575 1
      vertex 26.3424 117.556 1
    endloop
  endfacet
  facet normal 0.0969274 -0.995291 0
    outer loop
      vertex 26.5375 117.575 1
      vertex 26.3424 117.556 0
      vertex 26.5375 117.575 0
    endloop
  endfacet
  facet normal 0.473705 0.880684 -0
    outer loop
      vertex 26.1548 115.651 0
      vertex 25.9819 115.744 1
      vertex 26.1548 115.651 1
    endloop
  endfacet
  facet normal 0.473705 0.880684 0
    outer loop
      vertex 25.9819 115.744 1
      vertex 26.1548 115.651 0
      vertex 25.9819 115.744 0
    endloop
  endfacet
  facet normal -0.633377 0.773843 0
    outer loop
      vertex 27.2446 115.868 0
      vertex 27.0931 115.744 1
      vertex 27.2446 115.868 1
    endloop
  endfacet
  facet normal -0.633377 0.773843 0
    outer loop
      vertex 27.0931 115.744 1
      vertex 27.2446 115.868 0
      vertex 27.0931 115.744 0
    endloop
  endfacet
  facet normal -0.771812 -0.635851 0
    outer loop
      vertex 27.369 117.131 0
      vertex 27.2446 117.282 1
      vertex 27.2446 117.282 0
    endloop
  endfacet
  facet normal -0.771812 -0.635851 0
    outer loop
      vertex 27.2446 117.282 1
      vertex 27.369 117.131 0
      vertex 27.369 117.131 1
    endloop
  endfacet
  facet normal -0.957123 0.289682 0
    outer loop
      vertex 27.4614 116.192 0
      vertex 27.5183 116.38 1
      vertex 27.5183 116.38 0
    endloop
  endfacet
  facet normal -0.957123 0.289682 0
    outer loop
      vertex 27.5183 116.38 1
      vertex 27.4614 116.192 0
      vertex 27.4614 116.192 1
    endloop
  endfacet
  facet normal 0.771812 0.635851 0
    outer loop
      vertex 25.8304 115.868 1
      vertex 25.706 116.019 0
      vertex 25.706 116.019 1
    endloop
  endfacet
  facet normal 0.771812 0.635851 0
    outer loop
      vertex 25.706 116.019 0
      vertex 25.8304 115.868 1
      vertex 25.8304 115.868 0
    endloop
  endfacet
  facet normal 0.633377 -0.773843 0
    outer loop
      vertex 25.8304 117.282 0
      vertex 25.9819 117.406 1
      vertex 25.8304 117.282 1
    endloop
  endfacet
  facet normal 0.633377 -0.773843 0
    outer loop
      vertex 25.9819 117.406 1
      vertex 25.8304 117.282 0
      vertex 25.9819 117.406 0
    endloop
  endfacet
  facet normal -0.0969274 -0.995291 0
    outer loop
      vertex 26.5375 117.575 0
      vertex 26.7326 117.556 1
      vertex 26.5375 117.575 1
    endloop
  endfacet
  facet normal -0.0969274 -0.995291 -0
    outer loop
      vertex 26.7326 117.556 1
      vertex 26.5375 117.575 0
      vertex 26.7326 117.556 0
    endloop
  endfacet
  facet normal 0.473705 -0.880684 0
    outer loop
      vertex 25.9819 117.406 0
      vertex 26.1548 117.499 1
      vertex 25.9819 117.406 1
    endloop
  endfacet
  facet normal 0.473705 -0.880684 0
    outer loop
      vertex 26.1548 117.499 1
      vertex 25.9819 117.406 0
      vertex 26.1548 117.499 0
    endloop
  endfacet
  facet normal 0.771812 -0.635851 0
    outer loop
      vertex 25.706 117.131 1
      vertex 25.8304 117.282 0
      vertex 25.8304 117.282 1
    endloop
  endfacet
  facet normal 0.771812 -0.635851 0
    outer loop
      vertex 25.8304 117.282 0
      vertex 25.706 117.131 1
      vertex 25.706 117.131 0
    endloop
  endfacet
  facet normal 0.995188 -0.0979877 0
    outer loop
      vertex 25.5375 116.575 1
      vertex 25.5567 116.77 0
      vertex 25.5567 116.77 1
    endloop
  endfacet
  facet normal 0.995188 -0.0979877 0
    outer loop
      vertex 25.5567 116.77 0
      vertex 25.5375 116.575 1
      vertex 25.5375 116.575 0
    endloop
  endfacet
  facet normal 0.290715 -0.95681 0
    outer loop
      vertex 26.1548 117.499 0
      vertex 26.3424 117.556 1
      vertex 26.1548 117.499 1
    endloop
  endfacet
  facet normal 0.290715 -0.95681 0
    outer loop
      vertex 26.3424 117.556 1
      vertex 26.1548 117.499 0
      vertex 26.3424 117.556 0
    endloop
  endfacet
  facet normal 0.882071 0.471117 0
    outer loop
      vertex 25.706 116.019 1
      vertex 25.6136 116.192 0
      vertex 25.6136 116.192 1
    endloop
  endfacet
  facet normal 0.882071 0.471117 0
    outer loop
      vertex 25.6136 116.192 0
      vertex 25.706 116.019 1
      vertex 25.706 116.019 0
    endloop
  endfacet
  facet normal -0.771812 0.635851 0
    outer loop
      vertex 27.2446 115.868 0
      vertex 27.369 116.019 1
      vertex 27.369 116.019 0
    endloop
  endfacet
  facet normal -0.771812 0.635851 0
    outer loop
      vertex 27.369 116.019 1
      vertex 27.2446 115.868 0
      vertex 27.2446 115.868 1
    endloop
  endfacet
  facet normal -0.290715 -0.95681 0
    outer loop
      vertex 26.7326 117.556 0
      vertex 26.9202 117.499 1
      vertex 26.7326 117.556 1
    endloop
  endfacet
  facet normal -0.290715 -0.95681 -0
    outer loop
      vertex 26.9202 117.499 1
      vertex 26.7326 117.556 0
      vertex 26.9202 117.499 0
    endloop
  endfacet
  facet normal -0.290715 0.95681 0
    outer loop
      vertex 26.9202 115.651 0
      vertex 26.7326 115.594 1
      vertex 26.9202 115.651 1
    endloop
  endfacet
  facet normal -0.290715 0.95681 0
    outer loop
      vertex 26.7326 115.594 1
      vertex 26.9202 115.651 0
      vertex 26.7326 115.594 0
    endloop
  endfacet
  facet normal -0.473705 0.880684 0
    outer loop
      vertex 27.0931 115.744 0
      vertex 26.9202 115.651 1
      vertex 27.0931 115.744 1
    endloop
  endfacet
  facet normal -0.473705 0.880684 0
    outer loop
      vertex 26.9202 115.651 1
      vertex 27.0931 115.744 0
      vertex 26.9202 115.651 0
    endloop
  endfacet
  facet normal 0.633377 0.773843 -0
    outer loop
      vertex 25.9819 115.744 0
      vertex 25.8304 115.868 1
      vertex 25.9819 115.744 1
    endloop
  endfacet
  facet normal 0.633377 0.773843 0
    outer loop
      vertex 25.8304 115.868 1
      vertex 25.9819 115.744 0
      vertex 25.8304 115.868 0
    endloop
  endfacet
  facet normal -0.882071 0.471117 0
    outer loop
      vertex 27.369 116.019 0
      vertex 27.4614 116.192 1
      vertex 27.4614 116.192 0
    endloop
  endfacet
  facet normal -0.882071 0.471117 0
    outer loop
      vertex 27.4614 116.192 1
      vertex 27.369 116.019 0
      vertex 27.369 116.019 1
    endloop
  endfacet
  facet normal -0.633377 -0.773843 0
    outer loop
      vertex 27.0931 117.406 0
      vertex 27.2446 117.282 1
      vertex 27.0931 117.406 1
    endloop
  endfacet
  facet normal -0.633377 -0.773843 -0
    outer loop
      vertex 27.2446 117.282 1
      vertex 27.0931 117.406 0
      vertex 27.2446 117.282 0
    endloop
  endfacet
  facet normal 0.0969274 0.995291 -0
    outer loop
      vertex 26.5375 115.575 0
      vertex 26.3424 115.594 1
      vertex 26.5375 115.575 1
    endloop
  endfacet
  facet normal 0.0969274 0.995291 0
    outer loop
      vertex 26.3424 115.594 1
      vertex 26.5375 115.575 0
      vertex 26.3424 115.594 0
    endloop
  endfacet
  facet normal -0.473705 -0.880684 0
    outer loop
      vertex 26.9202 117.499 0
      vertex 27.0931 117.406 1
      vertex 26.9202 117.499 1
    endloop
  endfacet
  facet normal -0.473705 -0.880684 -0
    outer loop
      vertex 27.0931 117.406 1
      vertex 26.9202 117.499 0
      vertex 27.0931 117.406 0
    endloop
  endfacet
  facet normal 0.957123 -0.289682 0
    outer loop
      vertex 25.5567 116.77 1
      vertex 25.6136 116.958 0
      vertex 25.6136 116.958 1
    endloop
  endfacet
  facet normal 0.957123 -0.289682 0
    outer loop
      vertex 25.6136 116.958 0
      vertex 25.5567 116.77 1
      vertex 25.5567 116.77 0
    endloop
  endfacet
  facet normal -0.0969274 0.995291 0
    outer loop
      vertex 26.7326 115.594 0
      vertex 26.5375 115.575 1
      vertex 26.7326 115.594 1
    endloop
  endfacet
  facet normal -0.0969274 0.995291 0
    outer loop
      vertex 26.5375 115.575 1
      vertex 26.7326 115.594 0
      vertex 26.5375 115.575 0
    endloop
  endfacet
  facet normal 0.995188 0.0979877 0
    outer loop
      vertex 25.5567 116.38 1
      vertex 25.5375 116.575 0
      vertex 25.5375 116.575 1
    endloop
  endfacet
  facet normal 0.995188 0.0979877 0
    outer loop
      vertex 25.5375 116.575 0
      vertex 25.5567 116.38 1
      vertex 25.5567 116.38 0
    endloop
  endfacet
  facet normal 0.882071 -0.471117 0
    outer loop
      vertex 25.6136 116.958 1
      vertex 25.706 117.131 0
      vertex 25.706 117.131 1
    endloop
  endfacet
  facet normal 0.882071 -0.471117 0
    outer loop
      vertex 25.706 117.131 0
      vertex 25.6136 116.958 1
      vertex 25.6136 116.958 0
    endloop
  endfacet
  facet normal 0.290715 0.95681 -0
    outer loop
      vertex 26.3424 115.594 0
      vertex 26.1548 115.651 1
      vertex 26.3424 115.594 1
    endloop
  endfacet
  facet normal 0.290715 0.95681 0
    outer loop
      vertex 26.1548 115.651 1
      vertex 26.3424 115.594 0
      vertex 26.1548 115.651 0
    endloop
  endfacet
  facet normal 0.956933 0.290309 0
    outer loop
      vertex 2.65112 3.19232 1
      vertex 2.59421 3.37991 0
      vertex 2.59421 3.37991 1
    endloop
  endfacet
  facet normal 0.956933 0.290309 0
    outer loop
      vertex 2.59421 3.37991 0
      vertex 2.65112 3.19232 1
      vertex 2.65112 3.19232 0
    endloop
  endfacet
  facet normal -0.956933 -0.290309 0
    outer loop
      vertex 4.55579 3.77009 0
      vertex 4.49888 3.95768 1
      vertex 4.49888 3.95768 0
    endloop
  endfacet
  facet normal -0.956933 -0.290309 0
    outer loop
      vertex 4.49888 3.95768 1
      vertex 4.55579 3.77009 0
      vertex 4.55579 3.77009 1
    endloop
  endfacet
  facet normal -0.995187 -0.0979935 0
    outer loop
      vertex 4.575 3.575 0
      vertex 4.55579 3.77009 1
      vertex 4.55579 3.77009 0
    endloop
  endfacet
  facet normal -0.995187 -0.0979935 0
    outer loop
      vertex 4.55579 3.77009 1
      vertex 4.575 3.575 0
      vertex 4.575 3.575 1
    endloop
  endfacet
  facet normal -0.881925 -0.47139 0
    outer loop
      vertex 4.49888 3.95768 0
      vertex 4.40647 4.13057 1
      vertex 4.40647 4.13057 0
    endloop
  endfacet
  facet normal -0.881925 -0.47139 0
    outer loop
      vertex 4.40647 4.13057 1
      vertex 4.49888 3.95768 0
      vertex 4.49888 3.95768 1
    endloop
  endfacet
  facet normal -0.995187 0.0979935 0
    outer loop
      vertex 4.55579 3.37991 0
      vertex 4.575 3.575 1
      vertex 4.575 3.575 0
    endloop
  endfacet
  facet normal -0.995187 0.0979935 0
    outer loop
      vertex 4.575 3.575 1
      vertex 4.55579 3.37991 0
      vertex 4.55579 3.37991 1
    endloop
  endfacet
  facet normal 0.47139 0.881925 -0
    outer loop
      vertex 3.19232 2.65112 0
      vertex 3.01943 2.74353 1
      vertex 3.19232 2.65112 1
    endloop
  endfacet
  facet normal 0.47139 0.881925 0
    outer loop
      vertex 3.01943 2.74353 1
      vertex 3.19232 2.65112 0
      vertex 3.01943 2.74353 0
    endloop
  endfacet
  facet normal -0.634376 0.773025 0
    outer loop
      vertex 4.28211 2.86789 0
      vertex 4.13057 2.74353 1
      vertex 4.28211 2.86789 1
    endloop
  endfacet
  facet normal -0.634376 0.773025 0
    outer loop
      vertex 4.13057 2.74353 1
      vertex 4.28211 2.86789 0
      vertex 4.13057 2.74353 0
    endloop
  endfacet
  facet normal -0.773025 -0.634376 0
    outer loop
      vertex 4.40647 4.13057 0
      vertex 4.28211 4.28211 1
      vertex 4.28211 4.28211 0
    endloop
  endfacet
  facet normal -0.773025 -0.634376 0
    outer loop
      vertex 4.28211 4.28211 1
      vertex 4.40647 4.13057 0
      vertex 4.40647 4.13057 1
    endloop
  endfacet
  facet normal -0.956933 0.290309 0
    outer loop
      vertex 4.49888 3.19232 0
      vertex 4.55579 3.37991 1
      vertex 4.55579 3.37991 0
    endloop
  endfacet
  facet normal -0.956933 0.290309 0
    outer loop
      vertex 4.55579 3.37991 1
      vertex 4.49888 3.19232 0
      vertex 4.49888 3.19232 1
    endloop
  endfacet
  facet normal 0.634376 -0.773025 0
    outer loop
      vertex 2.86789 4.28211 0
      vertex 3.01943 4.40647 1
      vertex 2.86789 4.28211 1
    endloop
  endfacet
  facet normal 0.634376 -0.773025 0
    outer loop
      vertex 3.01943 4.40647 1
      vertex 2.86789 4.28211 0
      vertex 3.01943 4.40647 0
    endloop
  endfacet
  facet normal 0.47139 -0.881925 0
    outer loop
      vertex 3.01943 4.40647 0
      vertex 3.19232 4.49888 1
      vertex 3.01943 4.40647 1
    endloop
  endfacet
  facet normal 0.47139 -0.881925 0
    outer loop
      vertex 3.19232 4.49888 1
      vertex 3.01943 4.40647 0
      vertex 3.19232 4.49888 0
    endloop
  endfacet
  facet normal -0.47139 0.881925 0
    outer loop
      vertex 4.13057 2.74353 0
      vertex 3.95768 2.65112 1
      vertex 4.13057 2.74353 1
    endloop
  endfacet
  facet normal -0.47139 0.881925 0
    outer loop
      vertex 3.95768 2.65112 1
      vertex 4.13057 2.74353 0
      vertex 3.95768 2.65112 0
    endloop
  endfacet
  facet normal 0.0979935 0.995187 -0
    outer loop
      vertex 3.575 2.575 0
      vertex 3.37991 2.59421 1
      vertex 3.575 2.575 1
    endloop
  endfacet
  facet normal 0.0979935 0.995187 0
    outer loop
      vertex 3.37991 2.59421 1
      vertex 3.575 2.575 0
      vertex 3.37991 2.59421 0
    endloop
  endfacet
  facet normal 0.773025 -0.634376 0
    outer loop
      vertex 2.74353 4.13057 1
      vertex 2.86789 4.28211 0
      vertex 2.86789 4.28211 1
    endloop
  endfacet
  facet normal 0.773025 -0.634376 0
    outer loop
      vertex 2.86789 4.28211 0
      vertex 2.74353 4.13057 1
      vertex 2.74353 4.13057 0
    endloop
  endfacet
  facet normal 0.290309 -0.956933 0
    outer loop
      vertex 3.19232 4.49888 0
      vertex 3.37991 4.55579 1
      vertex 3.19232 4.49888 1
    endloop
  endfacet
  facet normal 0.290309 -0.956933 0
    outer loop
      vertex 3.37991 4.55579 1
      vertex 3.19232 4.49888 0
      vertex 3.37991 4.55579 0
    endloop
  endfacet
  facet normal 0.881925 0.47139 0
    outer loop
      vertex 2.74353 3.01943 1
      vertex 2.65112 3.19232 0
      vertex 2.65112 3.19232 1
    endloop
  endfacet
  facet normal 0.881925 0.47139 0
    outer loop
      vertex 2.65112 3.19232 0
      vertex 2.74353 3.01943 1
      vertex 2.74353 3.01943 0
    endloop
  endfacet
  facet normal -0.0979935 -0.995187 0
    outer loop
      vertex 3.575 4.575 0
      vertex 3.77009 4.55579 1
      vertex 3.575 4.575 1
    endloop
  endfacet
  facet normal -0.0979935 -0.995187 -0
    outer loop
      vertex 3.77009 4.55579 1
      vertex 3.575 4.575 0
      vertex 3.77009 4.55579 0
    endloop
  endfacet
  facet normal -0.290309 -0.956933 0
    outer loop
      vertex 3.77009 4.55579 0
      vertex 3.95768 4.49888 1
      vertex 3.77009 4.55579 1
    endloop
  endfacet
  facet normal -0.290309 -0.956933 -0
    outer loop
      vertex 3.95768 4.49888 1
      vertex 3.77009 4.55579 0
      vertex 3.95768 4.49888 0
    endloop
  endfacet
  facet normal 0.290309 0.956933 -0
    outer loop
      vertex 3.37991 2.59421 0
      vertex 3.19232 2.65112 1
      vertex 3.37991 2.59421 1
    endloop
  endfacet
  facet normal 0.290309 0.956933 0
    outer loop
      vertex 3.19232 2.65112 1
      vertex 3.37991 2.59421 0
      vertex 3.19232 2.65112 0
    endloop
  endfacet
  facet normal 0.634376 0.773025 -0
    outer loop
      vertex 3.01943 2.74353 0
      vertex 2.86789 2.86789 1
      vertex 3.01943 2.74353 1
    endloop
  endfacet
  facet normal 0.634376 0.773025 0
    outer loop
      vertex 2.86789 2.86789 1
      vertex 3.01943 2.74353 0
      vertex 2.86789 2.86789 0
    endloop
  endfacet
  facet normal -0.881925 0.47139 0
    outer loop
      vertex 4.40647 3.01943 0
      vertex 4.49888 3.19232 1
      vertex 4.49888 3.19232 0
    endloop
  endfacet
  facet normal -0.881925 0.47139 0
    outer loop
      vertex 4.49888 3.19232 1
      vertex 4.40647 3.01943 0
      vertex 4.40647 3.01943 1
    endloop
  endfacet
  facet normal -0.773025 0.634376 0
    outer loop
      vertex 4.28211 2.86789 0
      vertex 4.40647 3.01943 1
      vertex 4.40647 3.01943 0
    endloop
  endfacet
  facet normal -0.773025 0.634376 0
    outer loop
      vertex 4.40647 3.01943 1
      vertex 4.28211 2.86789 0
      vertex 4.28211 2.86789 1
    endloop
  endfacet
  facet normal -0.290309 0.956933 0
    outer loop
      vertex 3.95768 2.65112 0
      vertex 3.77009 2.59421 1
      vertex 3.95768 2.65112 1
    endloop
  endfacet
  facet normal -0.290309 0.956933 0
    outer loop
      vertex 3.77009 2.59421 1
      vertex 3.95768 2.65112 0
      vertex 3.77009 2.59421 0
    endloop
  endfacet
  facet normal -0.634376 -0.773025 0
    outer loop
      vertex 4.13057 4.40647 0
      vertex 4.28211 4.28211 1
      vertex 4.13057 4.40647 1
    endloop
  endfacet
  facet normal -0.634376 -0.773025 -0
    outer loop
      vertex 4.28211 4.28211 1
      vertex 4.13057 4.40647 0
      vertex 4.28211 4.28211 0
    endloop
  endfacet
  facet normal -0.47139 -0.881925 0
    outer loop
      vertex 3.95768 4.49888 0
      vertex 4.13057 4.40647 1
      vertex 3.95768 4.49888 1
    endloop
  endfacet
  facet normal -0.47139 -0.881925 -0
    outer loop
      vertex 4.13057 4.40647 1
      vertex 3.95768 4.49888 0
      vertex 4.13057 4.40647 0
    endloop
  endfacet
  facet normal -0.0979935 0.995187 0
    outer loop
      vertex 3.77009 2.59421 0
      vertex 3.575 2.575 1
      vertex 3.77009 2.59421 1
    endloop
  endfacet
  facet normal -0.0979935 0.995187 0
    outer loop
      vertex 3.575 2.575 1
      vertex 3.77009 2.59421 0
      vertex 3.575 2.575 0
    endloop
  endfacet
  facet normal 0.773025 0.634376 0
    outer loop
      vertex 2.86789 2.86789 1
      vertex 2.74353 3.01943 0
      vertex 2.74353 3.01943 1
    endloop
  endfacet
  facet normal 0.773025 0.634376 0
    outer loop
      vertex 2.74353 3.01943 0
      vertex 2.86789 2.86789 1
      vertex 2.86789 2.86789 0
    endloop
  endfacet
  facet normal 0.995187 -0.0979935 0
    outer loop
      vertex 2.575 3.575 1
      vertex 2.59421 3.77009 0
      vertex 2.59421 3.77009 1
    endloop
  endfacet
  facet normal 0.995187 -0.0979935 0
    outer loop
      vertex 2.59421 3.77009 0
      vertex 2.575 3.575 1
      vertex 2.575 3.575 0
    endloop
  endfacet
  facet normal 0.956933 -0.290309 0
    outer loop
      vertex 2.59421 3.77009 1
      vertex 2.65112 3.95768 0
      vertex 2.65112 3.95768 1
    endloop
  endfacet
  facet normal 0.956933 -0.290309 0
    outer loop
      vertex 2.65112 3.95768 0
      vertex 2.59421 3.77009 1
      vertex 2.59421 3.77009 0
    endloop
  endfacet
  facet normal 0.0979935 -0.995187 0
    outer loop
      vertex 3.37991 4.55579 0
      vertex 3.575 4.575 1
      vertex 3.37991 4.55579 1
    endloop
  endfacet
  facet normal 0.0979935 -0.995187 0
    outer loop
      vertex 3.575 4.575 1
      vertex 3.37991 4.55579 0
      vertex 3.575 4.575 0
    endloop
  endfacet
  facet normal 0.995187 0.0979935 0
    outer loop
      vertex 2.59421 3.37991 1
      vertex 2.575 3.575 0
      vertex 2.575 3.575 1
    endloop
  endfacet
  facet normal 0.995187 0.0979935 0
    outer loop
      vertex 2.575 3.575 0
      vertex 2.59421 3.37991 1
      vertex 2.59421 3.37991 0
    endloop
  endfacet
  facet normal 0.881925 -0.47139 0
    outer loop
      vertex 2.65112 3.95768 1
      vertex 2.74353 4.13057 0
      vertex 2.74353 4.13057 1
    endloop
  endfacet
  facet normal 0.881925 -0.47139 0
    outer loop
      vertex 2.74353 4.13057 0
      vertex 2.65112 3.95768 1
      vertex 2.65112 3.95768 0
    endloop
  endfacet
  facet normal -0.956947 -0.290262 0
    outer loop
      vertex 50.4808 3.77009 0
      vertex 50.4239 3.95768 1
      vertex 50.4239 3.95768 0
    endloop
  endfacet
  facet normal -0.956947 -0.290262 0
    outer loop
      vertex 50.4239 3.95768 1
      vertex 50.4808 3.77009 0
      vertex 50.4808 3.77009 1
    endloop
  endfacet
  facet normal -0.471369 0.881936 0
    outer loop
      vertex 50.0556 2.74353 0
      vertex 49.8827 2.65112 1
      vertex 50.0556 2.74353 1
    endloop
  endfacet
  facet normal -0.471369 0.881936 0
    outer loop
      vertex 49.8827 2.65112 1
      vertex 50.0556 2.74353 0
      vertex 49.8827 2.65112 0
    endloop
  endfacet
  facet normal -0.290295 -0.956937 0
    outer loop
      vertex 49.6951 4.55579 0
      vertex 49.8827 4.49888 1
      vertex 49.6951 4.55579 1
    endloop
  endfacet
  facet normal -0.290295 -0.956937 -0
    outer loop
      vertex 49.8827 4.49888 1
      vertex 49.6951 4.55579 0
      vertex 49.8827 4.49888 0
    endloop
  endfacet
  facet normal 0.290295 -0.956937 0
    outer loop
      vertex 49.1173 4.49888 0
      vertex 49.3049 4.55579 1
      vertex 49.1173 4.49888 1
    endloop
  endfacet
  facet normal 0.290295 -0.956937 0
    outer loop
      vertex 49.3049 4.55579 1
      vertex 49.1173 4.49888 0
      vertex 49.3049 4.55579 0
    endloop
  endfacet
  facet normal -0.995192 0.0979429 0
    outer loop
      vertex 50.4808 3.37991 0
      vertex 50.5 3.575 1
      vertex 50.5 3.575 0
    endloop
  endfacet
  facet normal -0.995192 0.0979429 0
    outer loop
      vertex 50.5 3.575 1
      vertex 50.4808 3.37991 0
      vertex 50.4808 3.37991 1
    endloop
  endfacet
  facet normal -0.881946 0.471351 0
    outer loop
      vertex 50.3315 3.01943 0
      vertex 50.4239 3.19232 1
      vertex 50.4239 3.19232 0
    endloop
  endfacet
  facet normal -0.881946 0.471351 0
    outer loop
      vertex 50.4239 3.19232 1
      vertex 50.3315 3.01943 0
      vertex 50.3315 3.01943 1
    endloop
  endfacet
  facet normal -0.290295 0.956937 0
    outer loop
      vertex 49.8827 2.65112 0
      vertex 49.6951 2.59421 1
      vertex 49.8827 2.65112 1
    endloop
  endfacet
  facet normal -0.290295 0.956937 0
    outer loop
      vertex 49.6951 2.59421 1
      vertex 49.8827 2.65112 0
      vertex 49.6951 2.59421 0
    endloop
  endfacet
  facet normal -0.634476 0.772942 0
    outer loop
      vertex 50.2071 2.86789 0
      vertex 50.0556 2.74353 1
      vertex 50.2071 2.86789 1
    endloop
  endfacet
  facet normal -0.634476 0.772942 0
    outer loop
      vertex 50.0556 2.74353 1
      vertex 50.2071 2.86789 0
      vertex 50.0556 2.74353 0
    endloop
  endfacet
  facet normal 0.956947 -0.290262 0
    outer loop
      vertex 48.5192 3.77009 1
      vertex 48.5761 3.95768 0
      vertex 48.5761 3.95768 1
    endloop
  endfacet
  facet normal 0.956947 -0.290262 0
    outer loop
      vertex 48.5761 3.95768 0
      vertex 48.5192 3.77009 1
      vertex 48.5192 3.77009 0
    endloop
  endfacet
  facet normal -0.995192 -0.0979429 0
    outer loop
      vertex 50.5 3.575 0
      vertex 50.4808 3.77009 1
      vertex 50.4808 3.77009 0
    endloop
  endfacet
  facet normal -0.995192 -0.0979429 0
    outer loop
      vertex 50.4808 3.77009 1
      vertex 50.5 3.575 0
      vertex 50.5 3.575 1
    endloop
  endfacet
  facet normal 0.956947 0.290262 0
    outer loop
      vertex 48.5761 3.19232 1
      vertex 48.5192 3.37991 0
      vertex 48.5192 3.37991 1
    endloop
  endfacet
  facet normal 0.956947 0.290262 0
    outer loop
      vertex 48.5192 3.37991 0
      vertex 48.5761 3.19232 1
      vertex 48.5761 3.19232 0
    endloop
  endfacet
  facet normal 0.772925 -0.634498 0
    outer loop
      vertex 48.6685 4.13057 1
      vertex 48.7929 4.28211 0
      vertex 48.7929 4.28211 1
    endloop
  endfacet
  facet normal 0.772925 -0.634498 0
    outer loop
      vertex 48.7929 4.28211 0
      vertex 48.6685 4.13057 1
      vertex 48.6685 4.13057 0
    endloop
  endfacet
  facet normal 0.995192 0.0979429 0
    outer loop
      vertex 48.5192 3.37991 1
      vertex 48.5 3.575 0
      vertex 48.5 3.575 1
    endloop
  endfacet
  facet normal 0.995192 0.0979429 0
    outer loop
      vertex 48.5 3.575 0
      vertex 48.5192 3.37991 1
      vertex 48.5192 3.37991 0
    endloop
  endfacet
  facet normal 0.290295 0.956937 -0
    outer loop
      vertex 49.3049 2.59421 0
      vertex 49.1173 2.65112 1
      vertex 49.3049 2.59421 1
    endloop
  endfacet
  facet normal 0.290295 0.956937 0
    outer loop
      vertex 49.1173 2.65112 1
      vertex 49.3049 2.59421 0
      vertex 49.1173 2.65112 0
    endloop
  endfacet
  facet normal -0.881946 -0.471351 0
    outer loop
      vertex 50.4239 3.95768 0
      vertex 50.3315 4.13057 1
      vertex 50.3315 4.13057 0
    endloop
  endfacet
  facet normal -0.881946 -0.471351 0
    outer loop
      vertex 50.3315 4.13057 1
      vertex 50.4239 3.95768 0
      vertex 50.4239 3.95768 1
    endloop
  endfacet
  facet normal 0.634476 -0.772942 0
    outer loop
      vertex 48.7929 4.28211 0
      vertex 48.9444 4.40647 1
      vertex 48.7929 4.28211 1
    endloop
  endfacet
  facet normal 0.634476 -0.772942 0
    outer loop
      vertex 48.9444 4.40647 1
      vertex 48.7929 4.28211 0
      vertex 48.9444 4.40647 0
    endloop
  endfacet
  facet normal -0.0979885 -0.995188 0
    outer loop
      vertex 49.5 4.575 0
      vertex 49.6951 4.55579 1
      vertex 49.5 4.575 1
    endloop
  endfacet
  facet normal -0.0979885 -0.995188 -0
    outer loop
      vertex 49.6951 4.55579 1
      vertex 49.5 4.575 0
      vertex 49.6951 4.55579 0
    endloop
  endfacet
  facet normal 0.881946 -0.471351 0
    outer loop
      vertex 48.5761 3.95768 1
      vertex 48.6685 4.13057 0
      vertex 48.6685 4.13057 1
    endloop
  endfacet
  facet normal 0.881946 -0.471351 0
    outer loop
      vertex 48.6685 4.13057 0
      vertex 48.5761 3.95768 1
      vertex 48.5761 3.95768 0
    endloop
  endfacet
  facet normal -0.634476 -0.772942 0
    outer loop
      vertex 50.0556 4.40647 0
      vertex 50.2071 4.28211 1
      vertex 50.0556 4.40647 1
    endloop
  endfacet
  facet normal -0.634476 -0.772942 -0
    outer loop
      vertex 50.2071 4.28211 1
      vertex 50.0556 4.40647 0
      vertex 50.2071 4.28211 0
    endloop
  endfacet
  facet normal 0.634476 0.772942 -0
    outer loop
      vertex 48.9444 2.74353 0
      vertex 48.7929 2.86789 1
      vertex 48.9444 2.74353 1
    endloop
  endfacet
  facet normal 0.634476 0.772942 0
    outer loop
      vertex 48.7929 2.86789 1
      vertex 48.9444 2.74353 0
      vertex 48.7929 2.86789 0
    endloop
  endfacet
  facet normal -0.772925 -0.634498 0
    outer loop
      vertex 50.3315 4.13057 0
      vertex 50.2071 4.28211 1
      vertex 50.2071 4.28211 0
    endloop
  endfacet
  facet normal -0.772925 -0.634498 0
    outer loop
      vertex 50.2071 4.28211 1
      vertex 50.3315 4.13057 0
      vertex 50.3315 4.13057 1
    endloop
  endfacet
  facet normal -0.956947 0.290262 0
    outer loop
      vertex 50.4239 3.19232 0
      vertex 50.4808 3.37991 1
      vertex 50.4808 3.37991 0
    endloop
  endfacet
  facet normal -0.956947 0.290262 0
    outer loop
      vertex 50.4808 3.37991 1
      vertex 50.4239 3.19232 0
      vertex 50.4239 3.19232 1
    endloop
  endfacet
  facet normal 0.995192 -0.0979429 0
    outer loop
      vertex 48.5 3.575 1
      vertex 48.5192 3.77009 0
      vertex 48.5192 3.77009 1
    endloop
  endfacet
  facet normal 0.995192 -0.0979429 0
    outer loop
      vertex 48.5192 3.77009 0
      vertex 48.5 3.575 1
      vertex 48.5 3.575 0
    endloop
  endfacet
  facet normal -0.471369 -0.881936 0
    outer loop
      vertex 49.8827 4.49888 0
      vertex 50.0556 4.40647 1
      vertex 49.8827 4.49888 1
    endloop
  endfacet
  facet normal -0.471369 -0.881936 -0
    outer loop
      vertex 50.0556 4.40647 1
      vertex 49.8827 4.49888 0
      vertex 50.0556 4.40647 0
    endloop
  endfacet
  facet normal 0.471369 -0.881936 0
    outer loop
      vertex 48.9444 4.40647 0
      vertex 49.1173 4.49888 1
      vertex 48.9444 4.40647 1
    endloop
  endfacet
  facet normal 0.471369 -0.881936 0
    outer loop
      vertex 49.1173 4.49888 1
      vertex 48.9444 4.40647 0
      vertex 49.1173 4.49888 0
    endloop
  endfacet
  facet normal 0.0979885 -0.995188 0
    outer loop
      vertex 49.3049 4.55579 0
      vertex 49.5 4.575 1
      vertex 49.3049 4.55579 1
    endloop
  endfacet
  facet normal 0.0979885 -0.995188 0
    outer loop
      vertex 49.5 4.575 1
      vertex 49.3049 4.55579 0
      vertex 49.5 4.575 0
    endloop
  endfacet
  facet normal 0.0979885 0.995188 -0
    outer loop
      vertex 49.5 2.575 0
      vertex 49.3049 2.59421 1
      vertex 49.5 2.575 1
    endloop
  endfacet
  facet normal 0.0979885 0.995188 0
    outer loop
      vertex 49.3049 2.59421 1
      vertex 49.5 2.575 0
      vertex 49.3049 2.59421 0
    endloop
  endfacet
  facet normal 0.772925 0.634498 0
    outer loop
      vertex 48.7929 2.86789 1
      vertex 48.6685 3.01943 0
      vertex 48.6685 3.01943 1
    endloop
  endfacet
  facet normal 0.772925 0.634498 0
    outer loop
      vertex 48.6685 3.01943 0
      vertex 48.7929 2.86789 1
      vertex 48.7929 2.86789 0
    endloop
  endfacet
  facet normal 0.471369 0.881936 -0
    outer loop
      vertex 49.1173 2.65112 0
      vertex 48.9444 2.74353 1
      vertex 49.1173 2.65112 1
    endloop
  endfacet
  facet normal 0.471369 0.881936 0
    outer loop
      vertex 48.9444 2.74353 1
      vertex 49.1173 2.65112 0
      vertex 48.9444 2.74353 0
    endloop
  endfacet
  facet normal 0.881946 0.471351 0
    outer loop
      vertex 48.6685 3.01943 1
      vertex 48.5761 3.19232 0
      vertex 48.5761 3.19232 1
    endloop
  endfacet
  facet normal 0.881946 0.471351 0
    outer loop
      vertex 48.5761 3.19232 0
      vertex 48.6685 3.01943 1
      vertex 48.6685 3.01943 0
    endloop
  endfacet
  facet normal -0.772925 0.634498 0
    outer loop
      vertex 50.2071 2.86789 0
      vertex 50.3315 3.01943 1
      vertex 50.3315 3.01943 0
    endloop
  endfacet
  facet normal -0.772925 0.634498 0
    outer loop
      vertex 50.3315 3.01943 1
      vertex 50.2071 2.86789 0
      vertex 50.2071 2.86789 1
    endloop
  endfacet
  facet normal -0.0979885 0.995188 0
    outer loop
      vertex 49.6951 2.59421 0
      vertex 49.5 2.575 1
      vertex 49.6951 2.59421 1
    endloop
  endfacet
  facet normal -0.0979885 0.995188 0
    outer loop
      vertex 49.5 2.575 1
      vertex 49.6951 2.59421 0
      vertex 49.5 2.575 0
    endloop
  endfacet
endsolid OpenSCAD_Model
